<svg width="300" height="300" viewBox="0 0 300 300" fill="none" xmlns="http://www.w3.org/2000/svg">
<circle cx="150" cy="150" r="149.5" stroke="#005AF4"/>
<circle cx="150" cy="150" r="134.5" stroke="#005AF4"/>
<circle cx="149.5" cy="150.5" r="142" stroke="#005AF4"/>
<path d="M31.8778 172V122.545H40.8366V164.49H62.6179V172H31.8778ZM112.658 147.273C112.658 152.601 111.66 157.165 109.664 160.964C107.684 164.748 104.979 167.645 101.55 169.658C98.1372 171.67 94.2655 172.676 89.935 172.676C85.6045 172.676 81.7248 171.67 78.2958 169.658C74.8829 167.629 72.1784 164.723 70.1822 160.94C68.2021 157.141 67.212 152.585 67.212 147.273C67.212 141.944 68.2021 137.388 70.1822 133.605C72.1784 129.806 74.8829 126.9 78.2958 124.888C81.7248 122.875 85.6045 121.869 89.935 121.869C94.2655 121.869 98.1372 122.875 101.55 124.888C104.979 126.9 107.684 129.806 109.664 133.605C111.66 137.388 112.658 141.944 112.658 147.273ZM103.651 147.273C103.651 143.522 103.063 140.358 101.888 137.783C100.729 135.191 99.1192 133.235 97.0586 131.915C94.998 130.579 92.6235 129.911 89.935 129.911C87.2466 129.911 84.872 130.579 82.8114 131.915C80.7508 133.235 79.1329 135.191 77.9577 137.783C76.7987 140.358 76.2191 143.522 76.2191 147.273C76.2191 151.024 76.7987 154.195 77.9577 156.787C79.1329 159.363 80.7508 161.319 82.8114 162.655C84.872 163.975 87.2466 164.635 89.935 164.635C92.6235 164.635 94.998 163.975 97.0586 162.655C99.1192 161.319 100.729 159.363 101.888 156.787C103.063 154.195 103.651 151.024 103.651 147.273ZM154.259 138.338C153.856 137.034 153.301 135.867 152.592 134.837C151.9 133.79 151.063 132.897 150.081 132.156C149.115 131.416 148.004 130.86 146.749 130.49C145.493 130.104 144.125 129.911 142.643 129.911C139.987 129.911 137.621 130.579 135.544 131.915C133.467 133.251 131.833 135.215 130.642 137.807C129.467 140.383 128.879 143.522 128.879 147.224C128.879 150.959 129.467 154.123 130.642 156.714C131.817 159.306 133.451 161.278 135.544 162.631C137.637 163.967 140.068 164.635 142.837 164.635C145.348 164.635 147.521 164.152 149.357 163.186C151.208 162.22 152.633 160.852 153.631 159.081C154.629 157.294 155.128 155.201 155.128 152.803L157.156 153.116H143.73V146.114H163.797V152.054C163.797 156.288 162.895 159.95 161.092 163.041C159.289 166.132 156.81 168.515 153.655 170.189C150.5 171.847 146.877 172.676 142.788 172.676C138.232 172.676 134.232 171.654 130.787 169.609C127.358 167.549 124.678 164.627 122.746 160.844C120.83 157.045 119.872 152.537 119.872 147.321C119.872 143.329 120.436 139.763 121.562 136.624C122.705 133.484 124.299 130.82 126.344 128.631C128.388 126.425 130.787 124.751 133.54 123.608C136.293 122.449 139.287 121.869 142.523 121.869C145.259 121.869 147.811 122.272 150.178 123.077C152.544 123.866 154.645 124.992 156.48 126.457C158.331 127.922 159.853 129.661 161.044 131.673C162.235 133.686 163.016 135.907 163.386 138.338H154.259ZM172.46 122.545H183.423L198.105 158.381H198.684L213.366 122.545H224.329V172H215.733V138.024H215.274L201.606 171.855H195.183L181.515 137.952H181.056V172H172.46V122.545ZM234.085 172V122.545H266.25V130.055H243.044V143.482H264.583V150.991H243.044V164.49H266.443V172H234.085Z" fill="black"/>
</svg>
