<?xml version="1.0" standalone="no"?>
<!DOCTYPE svg PUBLIC "-//W3C//DTD SVG 20010904//EN"
 "http://www.w3.org/TR/2001/REC-SVG-20010904/DTD/svg10.dtd">
<svg version="1.0" xmlns="http://www.w3.org/2000/svg"
 width="336.000000pt" height="324.000000pt" viewBox="0 0 336.000000 324.000000"
 preserveAspectRatio="xMidYMid meet">

<g transform="translate(0.000000,324.000000) scale(0.100000,-0.100000)"
fill="#000000" stroke="none">
<path d="M2460 2693 c-282 -42 -426 -93 -575 -203 -95 -70 -212 -206 -279
-322 -32 -55 -36 -53 79 -38 101 13 142 0 49 -15 -38 -7 -95 -20 -126 -29
l-56 -16 -76 -130 c-42 -71 -76 -133 -76 -137 0 -5 20 -7 45 -5 61 5 58 -14
-3 -22 -27 -3 -56 -12 -64 -19 -9 -6 -58 -86 -110 -177 -52 -91 -152 -263
-221 -383 -70 -120 -127 -220 -127 -222 0 -3 26 14 58 38 57 41 118 75 177 98
l30 12 -38 15 c-20 8 -37 21 -37 28 0 18 14 18 52 -2 29 -15 31 -15 23 2 -20
49 -34 90 -35 105 0 31 44 58 123 74 231 48 464 171 612 324 l50 52 -57 -26
c-62 -28 -212 -69 -298 -80 -78 -10 -58 2 60 36 200 58 399 172 501 287 46 52
110 144 105 149 -2 2 -31 -13 -64 -35 -84 -54 -322 -130 -322 -102 0 5 19 14
43 20 95 24 222 92 314 167 71 59 212 241 213 276 0 5 -17 -5 -37 -21 -68 -53
-200 -113 -278 -126 -32 -5 -19 4 66 46 115 57 176 102 252 182 51 54 137 176
137 195 0 11 -54 13 -110 4z"/>
<path d="M1842 1514 c-32 -22 -59 -81 -73 -158 l-12 -66 -21 19 c-68 62 -134
76 -181 39 -31 -24 -64 -90 -65 -128 -1 -44 -11 -51 -55 -36 -74 26 -120 -11
-151 -122 -16 -56 -20 -63 -50 -71 -19 -5 -59 -25 -91 -44 -32 -19 -77 -40
-100 -46 -24 -7 -43 -14 -43 -18 0 -3 30 -3 68 -1 46 4 84 14 121 32 29 15 59
25 66 23 7 -3 15 -34 19 -75 11 -112 70 -177 110 -120 31 44 9 155 -41 211
-37 40 1 170 53 183 18 5 34 0 52 -13 24 -18 28 -29 34 -99 14 -150 49 -270
95 -324 30 -36 56 -38 88 -5 29 28 31 57 10 140 -16 65 -92 225 -106 225 -16
0 3 -113 29 -170 26 -60 42 -160 25 -160 -16 0 -50 87 -70 180 -23 110 -24
289 -1 342 9 20 28 44 43 54 26 17 28 17 62 -1 19 -11 50 -37 68 -60 29 -37
33 -50 44 -154 37 -336 151 -555 237 -460 46 51 3 238 -99 433 l-52 100 -3
-47 c-2 -37 5 -67 36 -140 57 -131 73 -184 79 -249 5 -49 3 -58 -10 -58 -58 0
-138 328 -140 570 -1 118 1 141 20 182 25 54 55 68 103 48 47 -19 122 -109
174 -207 55 -103 52 -66 -4 54 -45 97 -81 146 -134 185 -45 32 -99 37 -134 12z"/>
</g>
</svg>
