<svg width="163" height="48" viewBox="0 0 163 48" fill="none" xmlns="http://www.w3.org/2000/svg">
<path d="M0.264 48V0.399997H9.58V40.112H23.724V48H0.264ZM48.4633 0.399997C51.6366 2.984 53.9939 6.452 55.5353 10.804C57.0766 15.156 57.8473 19.644 57.8473 24.268C57.8473 28.8467 57.0993 33.1987 55.6033 37.324C54.1073 41.4493 51.7273 45.008 48.4633 48H34.4553C31.1913 45.008 28.8113 41.4493 27.3153 37.324C25.8193 33.1987 25.0713 28.8467 25.0713 24.268C25.0713 19.644 25.8419 15.156 27.3833 10.804C28.9246 6.452 31.2819 2.984 34.4553 0.399997H48.4633ZM39.0113 40.112H43.9073C45.0406 38.7973 45.9926 36.6667 46.7633 33.72C47.5793 30.728 47.9873 27.5773 47.9873 24.268C47.9873 20.9587 47.6019 17.8533 46.8313 14.952C46.0606 12.0053 45.1086 9.87467 43.9753 8.56H39.0113C37.8779 9.87467 36.9033 12.0053 36.0873 14.952C35.3166 17.8533 34.9313 20.9587 34.9313 24.268C34.9313 27.5773 35.3166 30.728 36.0873 33.72C36.9033 36.6667 37.8779 38.7973 39.0113 40.112ZM85.7267 48H71.3107C68.0467 45.008 65.6667 41.4493 64.1707 37.324C62.6747 33.1987 61.9267 28.892 61.9267 24.404C61.9267 19.8707 62.8334 15.4053 64.6467 11.008C66.4601 6.61066 68.9987 3.07466 72.2627 0.399997H88.7867V8.56H76.1387C74.9601 9.92 73.9401 12.0733 73.0787 15.02C72.2174 17.9213 71.7867 21.0267 71.7867 24.336C71.7867 27.6 72.1721 30.728 72.9427 33.72C73.7587 36.6667 74.7561 38.7973 75.9347 40.112H82.4627V21.616H91.4387V33.04C91.4387 39.296 89.5347 44.2827 85.7267 48ZM114.092 26.24H113.82H114.092L117.696 11.348L120.62 0.399997H129.12L132.18 48H123.272L121.98 22.024H121.64L116.744 41.2H111.168L106.272 22.024H105.932L104.64 48H95.7323L98.7923 0.399997H107.292L110.216 11.348L113.82 26.24H114.092ZM137.659 48V0.399997H162.071V8.56H146.975V19.916H160.439V27.804H146.975V40.112H162.343V48H137.659Z" fill="#2657A6"/>
</svg>
